<svg width="261" height="44" viewBox="0 0 261 44" fill="none" xmlns="http://www.w3.org/2000/svg">
<g clip-path="url(#clip0_710_17432)">
<path d="M222.396 9.92438C225.133 9.92438 227.333 10.8044 228.996 12.5155C230.658 14.2266 231.489 16.6222 231.489 19.7022V33.0977H225.72V20.4844C225.72 18.6755 225.28 17.3066 224.351 16.3288C223.422 15.351 222.2 14.8622 220.636 14.8622C219.071 14.8622 217.8 15.351 216.822 16.3288C215.893 17.3066 215.453 18.6755 215.453 20.4844V33.0977H209.685V10.2177H215.453V13.0533C216.236 12.0755 217.213 11.2933 218.387 10.7555C219.609 10.1688 220.929 9.87549 222.347 9.87549L222.396 9.92438Z" fill="black"/>
<path d="M207.729 10.3646L193.6 43.9512H187.44L192.378 32.5601L183.235 10.3157H189.689L195.555 26.2534L201.52 10.3157H207.68L207.729 10.3646Z" fill="black"/>
<path d="M157.911 21.56C157.911 19.2622 158.351 17.2089 159.28 15.4C160.209 13.5911 161.48 12.2222 163.093 11.2933C164.707 10.3156 166.467 9.87557 168.422 9.87557C170.378 9.87557 171.307 10.2178 172.676 10.8533C174.044 11.4889 175.071 12.32 175.902 13.3956V2.54224H181.769V33H175.902V29.6267C175.169 30.7511 174.191 31.68 172.92 32.3645C171.649 33.0489 170.133 33.3911 168.422 33.3911C166.711 33.3911 164.756 32.9022 163.142 31.9245C161.529 30.9467 160.307 29.5289 159.329 27.7689C158.4 25.96 157.96 23.9067 157.96 21.56H157.911ZM175.853 21.6089C175.853 20.1911 175.56 19.0178 175.022 18.04C174.484 17.0133 173.751 16.2311 172.822 15.7422C171.893 15.2045 170.867 14.9111 169.84 14.9111C168.813 14.9111 167.787 15.1556 166.858 15.6933C165.929 16.2311 165.196 16.9645 164.658 17.9911C164.12 18.9689 163.827 20.1422 163.827 21.5111C163.827 22.88 164.12 24.1022 164.658 25.1289C165.244 26.1556 165.978 26.9378 166.858 27.4756C167.787 28.0133 168.764 28.3067 169.84 28.3067C170.916 28.3067 171.893 28.0622 172.822 27.5245C173.751 26.9867 174.484 26.2045 175.022 25.2267C175.56 24.2 175.853 23.0267 175.853 21.6089Z" fill="black"/>
<path d="M131.658 21.609C131.658 19.3112 132.098 17.2579 133.027 15.449C133.956 13.6401 135.227 12.2712 136.792 11.3423C138.405 10.3646 140.165 9.92456 142.12 9.92456C144.076 9.92456 145.298 10.2668 146.569 10.9512C147.84 11.6357 148.867 12.5157 149.649 13.5423V10.2668H155.467V33.0979H149.649V29.7735C148.916 30.849 147.889 31.729 146.569 32.4623C145.298 33.1468 143.783 33.489 142.072 33.489C140.36 33.489 138.405 33.0001 136.792 32.0223C135.227 31.0446 133.956 29.6268 133.027 27.8668C132.098 26.0579 131.658 24.0046 131.658 21.6579V21.609ZM149.6 21.7068C149.6 20.289 149.307 19.1157 148.769 18.1379C148.232 17.1112 147.498 16.329 146.569 15.8401C145.64 15.3023 144.614 15.009 143.587 15.009C142.56 15.009 141.534 15.2534 140.605 15.7912C139.676 16.329 138.943 17.0623 138.405 18.089C137.867 19.0668 137.574 20.2401 137.574 21.609C137.574 22.9779 137.867 24.2001 138.405 25.2268C138.992 26.2534 139.725 27.0357 140.605 27.5735C141.534 28.1112 142.512 28.4046 143.587 28.4046C144.663 28.4046 145.64 28.1601 146.569 27.6223C147.498 27.0846 148.232 26.3023 148.769 25.3246C149.307 24.2979 149.6 23.1246 149.6 21.7068Z" fill="black"/>
<path d="M123.591 13.7868C124.324 12.5646 125.302 11.6357 126.476 10.9512C127.698 10.2668 129.067 9.92456 130.582 9.92456V15.9868H129.067C127.258 15.9868 125.889 16.4268 124.96 17.2579C124.031 18.089 123.591 19.6046 123.591 21.7068V33.0979H117.822V10.2179H123.591V13.7379V13.7868Z" fill="black"/>
<path d="M109.658 14.9599V26.0088C109.658 26.791 109.854 27.3288 110.196 27.7199C110.587 28.0621 111.222 28.2088 112.102 28.2088H114.791V33.0488H111.174C106.334 33.0488 103.889 30.7021 103.889 25.9599V14.9599H101.151V10.2177H103.889V4.59546H109.707V10.2177H114.791V14.9599H109.707H109.658Z" fill="black"/>
<path d="M99.5868 21.1689C99.5868 22.0001 99.5379 22.7334 99.4401 23.3689H82.769C82.9157 25.0312 83.5023 26.3023 84.4801 27.2312C85.5068 28.1601 86.729 28.6489 88.2446 28.6489C90.3957 28.6489 91.9112 27.7201 92.8401 25.9112H99.049C98.4135 28.1112 97.1423 29.9201 95.2357 31.3378C93.3779 32.7556 91.0801 33.4401 88.3423 33.4401C85.6046 33.4401 84.1868 32.9512 82.4268 32.0223C80.7157 31.0445 79.3468 29.6267 78.369 27.8667C77.3912 26.0578 76.9023 24.0045 76.9023 21.7067C76.9023 19.4089 77.3912 17.2578 78.369 15.4978C79.3468 13.6889 80.6668 12.3201 82.4268 11.3912C84.1379 10.4134 86.1423 9.97339 88.3912 9.97339C90.6401 9.97339 92.4979 10.4623 94.209 11.3912C95.9201 12.3201 97.289 13.6401 98.2179 15.4001C99.1957 17.1112 99.6846 19.0667 99.6846 21.2667L99.5868 21.1689ZM93.6223 19.5556C93.6223 18.0889 93.0357 16.9156 92.009 16.0356C90.9823 15.1067 89.7112 14.6667 88.1957 14.6667C86.6801 14.6667 85.5557 15.1067 84.5779 15.9867C83.6001 16.8178 83.0135 18.0401 82.8179 19.5556H93.6712H93.6223Z" fill="black"/>
<path d="M65.2667 9.92438C68.0045 9.92438 70.2045 10.8044 71.8667 12.5155C73.5289 14.2266 74.4089 16.6222 74.4089 19.7022V33.0977H68.64V20.4844C68.64 18.6755 68.2001 17.3066 67.2712 16.3288C66.3423 15.351 65.12 14.8622 63.5556 14.8622C61.9912 14.8622 60.6712 15.351 59.7423 16.3288C58.8134 17.3066 58.3734 18.6755 58.3734 20.4844V33.0977H52.6045V10.2177H58.3734V13.0533C59.1556 12.0755 60.1334 11.2933 61.3067 10.7555C62.5289 10.1688 63.8489 9.87549 65.2667 9.87549V9.92438Z" fill="black"/>
<path d="M256.716 21.1689C256.716 22.0001 256.667 22.7334 256.569 23.3689H239.898C240.045 25.0312 240.631 26.3023 241.609 27.2312C242.636 28.1601 243.858 28.6489 245.373 28.6489C247.525 28.6489 249.04 27.7201 249.969 25.9112H256.178C255.542 28.1112 254.271 29.9201 252.365 31.3378C250.507 32.7556 248.209 33.4401 245.471 33.4401C242.733 33.4401 241.316 32.9512 239.556 32.0223C237.845 31.0445 236.476 29.6267 235.498 27.8667C234.52 26.0578 234.08 24.0045 234.08 21.7067C234.08 19.4089 234.569 17.2578 235.498 15.4978C236.476 13.6889 237.796 12.3201 239.556 11.3912C241.267 10.4134 243.271 9.97339 245.52 9.97339C247.769 9.97339 249.627 10.4623 251.338 11.3912C253.049 12.3201 254.418 13.6401 255.347 15.4001C256.325 17.1112 256.765 19.0667 256.765 21.2667L256.716 21.1689ZM250.751 19.5556C250.751 18.0889 250.165 16.9156 249.138 16.0356C248.111 15.1067 246.84 14.6667 245.325 14.6667C243.809 14.6667 242.685 15.1067 241.707 15.9867C240.729 16.8178 240.142 18.0401 239.947 19.5556H250.8H250.751Z" fill="black"/>
<path fill-rule="evenodd" clip-rule="evenodd" d="M15.2048 0.195543C15.0093 0.146655 14.8626 0.195543 14.6671 0.244432C14.6671 0.244432 14.5693 0.293321 14.5693 0.34221C14.5204 0.391099 14.4715 0.488877 14.4226 0.586655L0.831494 41.7511C0.733717 42.0933 0.880383 42.4355 1.22261 42.5333C1.56483 42.6311 1.90705 42.4844 2.00483 42.1422L15.1559 2.1511L38.4271 36.52C38.6226 36.8133 42.8271 42.68 43.1204 42.4844C43.4137 42.2889 42.9737 40.5778 42.7782 40.2844L15.4982 0.439988C15.4493 0.34221 15.3515 0.244432 15.2537 0.195543H15.2048Z" fill="#3DB174"/>
<path fill-rule="evenodd" clip-rule="evenodd" d="M7.9199 0.0976562C8.06657 0.0976562 8.26212 0.195434 8.3599 0.342101L42.631 40.6265C42.8755 40.9199 43.071 41.9954 42.7777 42.2399C42.4843 42.4843 40.2355 39.991 39.991 39.7465L8.31101 2.29766L1.80879 42.9732C1.7599 43.3154 1.41768 43.6088 1.02657 43.511C0.684346 43.4621 0.391012 43.1199 0.48879 42.7288L7.18657 0.684323C7.18657 0.684323 7.18657 0.635434 7.18657 0.586545C7.18657 0.586545 7.18657 0.488767 7.23546 0.439878C7.23546 0.39099 7.33324 0.293212 7.38212 0.244323C7.4799 0.195434 7.57768 0.146545 7.67546 0.0976562C7.72435 0.0976562 7.82212 0.0976562 7.87101 0.0976562H7.9199Z" fill="#3DB174"/>
<path fill-rule="evenodd" clip-rule="evenodd" d="M43.6088 0.342222C43.6088 0.146667 43.4621 0 43.2665 0C43.071 0 43.2665 0 43.2177 0C43.1688 0 43.1199 0 43.071 0.0977778L37.2043 6.11111L36.2265 0.537778C36.2265 0.44 36.1288 0.342222 36.031 0.342222C36.031 0.342222 35.9821 0.342222 35.9332 0.342222C35.8843 0.342222 35.7865 0.342222 35.7377 0.44L31.2399 5.96444L29.3821 0.537778C29.3821 0.537778 29.3821 0.537778 29.3821 0.488889C29.3821 0.44 29.2843 0.391111 29.2354 0.342222C29.2354 0.342222 29.2354 0.342222 29.1865 0.342222C29.1377 0.342222 29.0399 0.342222 28.991 0.342222C28.8932 0.342222 28.8443 0.44 28.7954 0.488889L25.1288 6.11111L22.1954 0.391111C22.1954 0.342222 22.0977 0.293333 22.0488 0.244444C22.0488 0.244444 21.951 0.244444 21.9021 0.244444C21.8532 0.244444 21.8043 0.244444 21.7554 0.244444C21.7065 0.244444 21.6577 0.342222 21.6088 0.391111L15.1065 13.6889L1.95543 0.44C1.51543 0 0.83099 0 0.39099 0.44C0.293212 0.537778 0.195434 0.684445 0.146545 0.831111C0.146545 0.928889 0.0976562 1.07556 0.0976562 1.22222V42.6311C0.0976562 43.2667 0.586545 43.7556 1.2221 43.7556C1.85766 43.7556 1.80877 43.6578 2.00432 43.4622L21.511 23.32L41.5554 43.5111C41.9954 43.9511 42.6799 43.9511 43.1199 43.5111C43.2177 43.4133 43.2665 43.3156 43.3154 43.1689C43.4132 42.9733 43.4621 42.7289 43.4621 42.4844L43.5599 0.391111L43.6088 0.342222ZM42.6799 41.6044L29.1377 15.3511L22.9777 21.7067L42.6799 41.6044ZM22.4399 21.1689L28.7954 14.6667L27.2799 11.6844L20.9243 19.5556L22.4888 21.1689H22.4399ZM20.3865 19.0667L26.9377 11.0978L24.9821 7.33333L18.5288 17.2089L20.3865 19.0667ZM17.3554 19.0667L19.0177 20.7778L5.32877 37.4489L17.3065 19.0667H17.3554ZM18.0399 16.6711L24.6399 6.6L21.9021 1.27111L15.6443 14.2267L18.0399 16.6222V16.6711ZM14.6177 16.3289L16.8177 18.5289L4.54655 37.2044L14.6177 16.3289ZM14.0799 15.7422L2.29766 3.91111V39.7956L14.0799 15.7422ZM19.5065 21.2667L20.9243 22.7333L5.67099 38.3778L19.5065 21.3156V21.2667ZM25.4221 6.69778L27.3777 10.56L30.7021 6.50222L28.9421 1.32L25.4221 6.69778ZM27.671 11.1467L29.2354 14.1778L32.2665 11.0978L30.8977 7.13778L27.671 11.1467ZM41.6532 38.3289L29.6265 14.8622L32.5599 11.8311L41.6532 38.3289ZM42.2888 38.4267L36.8132 7.43111L32.9999 11.3422L42.2399 38.4267H42.2888ZM32.8043 10.56L36.7154 6.55111L35.7865 1.17333L31.4354 6.50222L32.8043 10.5111V10.56ZM42.9243 38.9644L37.3021 6.94222L42.9243 1.17333V39.0133V38.9644Z" fill="#3DB174"/>
<path d="M259.6 29.8712C259.894 30.0667 260.089 30.2623 260.285 30.5556C260.431 30.8489 260.529 31.1912 260.529 31.5334C260.529 31.8756 260.431 32.2178 260.285 32.5112C260.138 32.8045 259.894 33.0489 259.6 33.1956C259.307 33.3912 259.014 33.44 258.622 33.44C258.231 33.44 257.938 33.3423 257.645 33.1956C257.351 33 257.156 32.8045 256.96 32.5112C256.814 32.2178 256.716 31.8756 256.716 31.5334C256.716 31.1912 256.814 30.8489 256.96 30.5556C257.107 30.2623 257.351 30.0178 257.645 29.8712C257.938 29.6756 258.231 29.6267 258.622 29.6267C259.014 29.6267 259.307 29.7245 259.6 29.8712ZM259.502 33.0489C259.747 32.9023 259.942 32.7067 260.089 32.4134C260.236 32.12 260.285 31.8267 260.285 31.5334C260.285 31.24 260.236 30.8978 260.089 30.6534C259.942 30.4089 259.747 30.1645 259.502 30.0178C259.258 29.8712 258.965 29.7734 258.622 29.7734C258.28 29.7734 257.987 29.8712 257.743 30.0178C257.498 30.1645 257.302 30.36 257.156 30.6534C257.009 30.8978 256.96 31.1912 256.96 31.5334C256.96 31.8756 257.009 32.1689 257.156 32.4134C257.302 32.6578 257.498 32.9023 257.743 33.0489C257.987 33.1956 258.28 33.2934 258.622 33.2934C258.965 33.2934 259.258 33.1956 259.502 33.0489ZM258.769 31.6312L259.454 32.56H259.209L258.525 31.6312H258.134V32.6089H257.938V30.4578H258.769C258.965 30.4578 259.16 30.5067 259.258 30.6045C259.356 30.7023 259.454 30.8489 259.454 31.0445C259.454 31.24 259.405 31.3867 259.258 31.4845C259.16 31.5823 258.965 31.6312 258.769 31.6312ZM258.182 31.4356H258.818C258.965 31.4356 259.062 31.4356 259.16 31.3378C259.258 31.2889 259.307 31.1423 259.307 31.0445C259.307 30.7512 259.16 30.6534 258.818 30.6534H258.182V31.4845V31.4356Z" fill="black"/>
</g>
<defs>
<clipPath id="clip0_710_17432">
<rect width="260.578" height="44" fill="white"/>
</clipPath>
</defs>
</svg>
